<svg width="111" height="206" fill="none" xmlns="http://www.w3.org/2000/svg"><g clip-path="url(#clip0_56_152)" opacity=".4"><path d="M41.963 66.985a1.278 1.278 0 01-.574-.332c-.175-.175-4.345-4.365-8.196-10.026-2.282-3.356-3.971-6.53-5.02-9.434-1.357-3.759-1.65-7.102-.87-9.939.906-3.3 2.923-6.092 5.68-7.861 2.803-1.799 6.044-2.335 9.126-1.509 3.95 1.058 6.968 4.239 8.107 8.3 3.018-2.947 7.222-4.192 11.172-3.134 2.912.78 5.373 2.707 6.93 5.425 1.71 2.982 2.149 6.667 1.203 10.108-.778 2.832-2.723 5.571-5.781 8.142-2.366 1.988-5.412 3.892-9.054 5.659-6.148 2.982-11.818 4.535-12.056 4.6-.222.06-.452.058-.667 0z" fill="#FAFF00"/></g><g clip-path="url(#clip1_56_152)" opacity=".2"><path d="M56.006 36.643a1.015 1.015 0 01-.507.136c-.197 0-4.882-.012-10.214-1.027-3.16-.601-5.886-1.433-8.101-2.473-2.868-1.346-4.906-3.056-6.06-5.083-1.34-2.358-1.775-5.054-1.222-7.59.563-2.58 2.08-4.696 4.27-5.96 2.807-1.622 6.281-1.53 9.197.107.039-3.343 1.697-6.398 4.505-8.018 2.069-1.195 4.528-1.495 6.925-.845 2.63.714 4.94 2.534 6.34 4.993 1.15 2.023 1.596 4.648 1.322 7.803-.211 2.44-.851 5.215-1.902 8.247-1.774 5.117-4.082 9.166-4.18 9.335a1.01 1.01 0 01-.373.375z" fill="#FAFF00"/></g><g clip-path="url(#clip2_56_152)" opacity=".6"><path d="M64.726 99.031a1.73 1.73 0 01-.865.232c-.336 0-8.33-.02-17.427-1.75-5.391-1.027-10.042-2.447-13.822-4.222-4.892-2.296-8.37-5.213-10.338-8.67-2.289-4.024-3.03-8.623-2.085-12.951.96-4.4 3.547-8.012 7.284-10.17 4.79-2.765 10.717-2.61 15.691.184.067-5.704 2.897-10.916 7.686-13.68 3.53-2.04 7.727-2.55 11.816-1.441 4.487 1.217 8.43 4.322 10.817 8.517 1.964 3.452 2.723 7.931 2.257 13.314-.361 4.164-1.453 8.898-3.247 14.07-3.027 8.731-6.964 15.639-7.13 15.929-.155.27-.376.488-.637.638z" fill="#FAFF00"/></g><g clip-path="url(#clip3_56_152)" opacity=".8"><path d="M31.525 134.701a1.977 1.977 0 01-.724-.724c-.192-.333-4.739-8.252-8.222-18.241-2.064-5.919-3.316-11.331-3.72-16.085-.522-6.151.378-11.258 2.675-15.18 2.673-4.562 6.8-7.922 11.62-9.46 4.902-1.563 9.953-1.067 14.222 1.398 5.471 3.159 8.704 9.112 8.78 15.629 5.682-3.193 12.454-3.37 17.925-.21 4.033 2.328 6.936 6.187 8.174 10.866 1.359 5.134.539 10.808-2.248 15.566-2.293 3.914-6.291 7.224-11.883 9.837-4.325 2.021-9.632 3.645-15.774 4.825-10.366 1.992-19.448 2.043-19.83 2.044a1.986 1.986 0 01-.995-.265z" fill="#FAFF00"/></g><g clip-path="url(#clip4_56_152)"><path d="M72.67 181.068a2.363 2.363 0 01-1.184.317c-.46 0-11.387-.026-23.822-2.393-7.37-1.403-13.727-3.344-18.895-5.77-6.687-3.139-11.44-7.127-14.13-11.853-3.13-5.5-4.142-11.787-2.851-17.703 1.313-6.015 4.849-10.952 9.957-13.901 6.547-3.78 14.65-3.569 21.45.252.09-7.799 3.96-14.922 10.506-18.702 4.826-2.787 10.562-3.486 16.152-1.969 6.134 1.664 11.523 5.908 14.786 11.643 2.684 4.718 3.722 10.842 3.085 18.2-.493 5.691-1.986 12.162-4.438 19.234-4.138 11.934-9.52 21.376-9.746 21.772a2.366 2.366 0 01-.87.873z" fill="#FAFF00"/></g><defs><clipPath id="clip0_56_152"><rect x="31.401" y="21.957" width="43.713" height="43.713" rx="10" transform="rotate(15 31.4 21.957)" fill="#fff"/></clipPath><clipPath id="clip1_56_152"><rect x="24.848" y="17.325" width="34.65" height="34.65" rx="10" transform="rotate(-30 24.848 17.325)" fill="#fff"/></clipPath><clipPath id="clip2_56_152"><rect x="11.565" y="66.072" width="59.118" height="59.118" rx="10" transform="rotate(-30 11.565 66.072)" fill="#fff"/></clipPath><clipPath id="clip3_56_152"><rect x="33.767" y="63.283" width="67.534" height="67.534" rx="10" transform="rotate(30 33.767 63.283)" fill="#fff"/></clipPath><clipPath id="clip4_56_152"><rect y="136.014" width="80.813" height="80.813" rx="10" transform="rotate(-30 0 136.014)" fill="#fff"/></clipPath></defs></svg>