<svg width="234" height="21" fill="none" xmlns="http://www.w3.org/2000/svg"><path d="M221.035 16.614l5.963-5.978-5.963-5.979a2.646 2.646 0 01-.765-1.849 2.632 2.632 0 011.614-2.42 2.612 2.612 0 012.849.561l8.984 9.007a.952.952 0 010 1.36l-8.984 9.007a2.614 2.614 0 01-3.607-.092 2.628 2.628 0 01-.091-3.617z" fill="url(#paint0_linear_36_76)"/><path d="M207.305 16.614l5.963-5.978-5.963-5.979a2.646 2.646 0 01-.765-1.849 2.632 2.632 0 011.614-2.42 2.612 2.612 0 012.849.561l8.984 9.007a.952.952 0 010 1.36l-8.984 9.007a2.614 2.614 0 01-3.607-.092 2.628 2.628 0 01-.091-3.617z" fill="url(#paint1_linear_36_76)"/><path d="M193.575 16.614l5.963-5.978-5.963-5.979a2.646 2.646 0 01-.765-1.849 2.632 2.632 0 011.614-2.42 2.612 2.612 0 012.849.561l8.984 9.007a.952.952 0 010 1.36l-8.984 9.007a2.614 2.614 0 01-3.607-.092 2.628 2.628 0 01-.091-3.617z" fill="url(#paint2_linear_36_76)"/><path d="M179.845 16.614l5.963-5.978-5.963-5.979a2.646 2.646 0 01-.765-1.849 2.632 2.632 0 011.614-2.42 2.612 2.612 0 012.849.561l8.984 9.007a.952.952 0 010 1.36l-8.984 9.007a2.614 2.614 0 01-3.607-.092 2.626 2.626 0 01-.091-3.617z" fill="url(#paint3_linear_36_76)"/><path d="M166.115 16.614l5.963-5.978-5.963-5.979a2.646 2.646 0 01-.765-1.849 2.632 2.632 0 011.614-2.42 2.612 2.612 0 012.849.561l8.984 9.007a.952.952 0 010 1.36l-8.984 9.007a2.614 2.614 0 01-3.607-.092 2.626 2.626 0 01-.091-3.617z" fill="url(#paint4_linear_36_76)"/><path d="M152.385 16.614l5.963-5.978-5.963-5.979a2.646 2.646 0 01-.765-1.849 2.632 2.632 0 011.614-2.42 2.612 2.612 0 012.849.561l8.984 9.007a.952.952 0 010 1.36l-8.984 9.007a2.614 2.614 0 01-3.607-.092 2.626 2.626 0 01-.091-3.617z" fill="url(#paint5_linear_36_76)"/><path d="M138.655 16.614l5.963-5.978-5.963-5.979a2.646 2.646 0 01-.765-1.849 2.632 2.632 0 011.614-2.42 2.612 2.612 0 012.849.561l8.984 9.007a.952.952 0 010 1.36l-8.984 9.007a2.614 2.614 0 01-3.607-.092 2.629 2.629 0 01-.091-3.617z" fill="url(#paint6_linear_36_76)"/><path d="M124.925 16.614l5.963-5.978-5.963-5.979a2.646 2.646 0 01-.765-1.849 2.632 2.632 0 011.614-2.42 2.612 2.612 0 012.849.561l8.984 9.007a.952.952 0 010 1.36l-8.984 9.007a2.614 2.614 0 01-3.607-.092 2.629 2.629 0 01-.091-3.617z" fill="url(#paint7_linear_36_76)"/><path d="M111.194 16.614l5.964-5.978-5.964-5.979a2.649 2.649 0 01-.764-1.849 2.632 2.632 0 011.614-2.42 2.612 2.612 0 012.849.561l8.984 9.007a.952.952 0 010 1.36l-8.984 9.007a2.614 2.614 0 01-3.607-.092 2.629 2.629 0 01-.092-3.617z" fill="url(#paint8_linear_36_76)"/><path d="M97.465 16.614l5.963-5.978-5.963-5.979a2.648 2.648 0 01-.765-1.849 2.63 2.63 0 011.614-2.42 2.613 2.613 0 012.849.561l8.984 9.007a.952.952 0 010 1.36l-8.984 9.007a2.614 2.614 0 01-3.607-.092 2.628 2.628 0 01-.091-3.617z" fill="url(#paint9_linear_36_76)"/><path d="M83.734 16.614l5.964-5.978-5.963-5.979a2.647 2.647 0 01-.765-1.849 2.63 2.63 0 011.614-2.42 2.613 2.613 0 012.85.561l8.983 9.007a.958.958 0 010 1.36l-8.984 9.007a2.615 2.615 0 01-3.607-.092 2.628 2.628 0 01-.091-3.617z" fill="url(#paint10_linear_36_76)"/><path d="M82.687 9.768a.958.958 0 010 1.36l-8.984 9.007a2.621 2.621 0 01-1.877.864 2.615 2.615 0 01-2.497-1.65 2.63 2.63 0 01.675-2.922l5.926-5.979-5.964-5.978a2.648 2.648 0 01-.764-1.85A2.63 2.63 0 0170.816.2a2.612 2.612 0 012.849.562l9.022 9.006z" fill="url(#paint11_linear_36_76)"/><path d="M68.859 9.768a.96.96 0 010 1.36l-8.984 9.007a2.621 2.621 0 01-1.877.864 2.613 2.613 0 01-2.498-1.65 2.63 2.63 0 01.676-2.922l5.926-5.979-5.964-5.978a2.648 2.648 0 01-.765-1.85A2.63 2.63 0 0156.987.2a2.613 2.613 0 012.85.562l9.022 9.006z" fill="url(#paint12_linear_36_76)"/><path d="M55.03 9.768a.96.96 0 010 1.36l-8.983 9.007a2.621 2.621 0 01-1.877.864 2.613 2.613 0 01-2.498-1.65 2.63 2.63 0 01.676-2.922l5.925-5.979L42.31 4.47a2.648 2.648 0 01-.765-1.85A2.63 2.63 0 0143.159.2a2.613 2.613 0 012.85.562l9.022 9.006z" fill="url(#paint13_linear_36_76)"/><path d="M41.202 9.768a.958.958 0 010 1.36l-8.984 9.007a2.621 2.621 0 01-1.877.864 2.613 2.613 0 01-2.498-1.65 2.63 2.63 0 01.677-2.922l5.925-5.979-5.964-5.978a2.648 2.648 0 01-.764-1.85A2.63 2.63 0 0129.33.2a2.613 2.613 0 012.849.562l9.022 9.006z" fill="url(#paint14_linear_36_76)"/><path d="M27.374 9.768a.958.958 0 010 1.36l-8.984 9.007a2.62 2.62 0 01-2.915.678 2.62 2.62 0 01-1.646-2.505 2.63 2.63 0 01.862-1.881l5.926-5.979-5.964-5.978a2.648 2.648 0 01-.765-1.85A2.63 2.63 0 0115.502.2a2.612 2.612 0 012.85.562l9.022 9.006z" fill="url(#paint15_linear_36_76)"/><path d="M13.546 9.768a.958.958 0 010 1.36l-8.984 9.007a2.62 2.62 0 01-1.877.864 2.614 2.614 0 01-2.498-1.65 2.631 2.631 0 01.676-2.922l5.926-5.979L.824 4.47A2.648 2.648 0 01.06 2.62 2.63 2.63 0 011.674.2a2.613 2.613 0 012.85.562l9.022 9.006z" fill="url(#paint16_linear_36_76)"/><defs><linearGradient id="paint0_linear_36_76" x1="233.854" y1="21" x2="38.976" y2="21" gradientUnits="userSpaceOnUse"><stop stop-color="#FAFF00"/><stop offset="1" stop-color="#FAFF00" stop-opacity="0"><animate attributeName="offset" values="1;0,7;0" dur="1s" repeatCount="indefinite"/></stop></linearGradient><linearGradient id="paint1_linear_36_76" x1="233.854" y1="21" x2="38.976" y2="21" gradientUnits="userSpaceOnUse"><stop stop-color="#FAFF00"/><stop offset="1" stop-color="#FAFF00" stop-opacity="0"><animate attributeName="offset" values="1;0,7;0" dur="1s" repeatCount="indefinite"/></stop></linearGradient><linearGradient id="paint2_linear_36_76" x1="233.854" y1="21" x2="38.976" y2="21" gradientUnits="userSpaceOnUse"><stop stop-color="#FAFF00"/><stop offset="1" stop-color="#FAFF00" stop-opacity="0"><animate attributeName="offset" values="1;0,7;0" dur="1s" repeatCount="indefinite"/></stop></linearGradient><linearGradient id="paint3_linear_36_76" x1="233.854" y1="21" x2="38.976" y2="21" gradientUnits="userSpaceOnUse"><stop stop-color="#FAFF00"/><stop offset="1" stop-color="#FAFF00" stop-opacity="0"><animate attributeName="offset" values="1;0,7;0" dur="1s" repeatCount="indefinite"/></stop></linearGradient><linearGradient id="paint4_linear_36_76" x1="233.854" y1="21" x2="38.976" y2="21" gradientUnits="userSpaceOnUse"><stop stop-color="#FAFF00"/><stop offset="1" stop-color="#FAFF00" stop-opacity="0"><animate attributeName="offset" values="1;0,7;0" dur="1s" repeatCount="indefinite"/></stop></linearGradient><linearGradient id="paint5_linear_36_76" x1="233.854" y1="21" x2="38.976" y2="21" gradientUnits="userSpaceOnUse"><stop stop-color="#FAFF00"/><stop offset="1" stop-color="#FAFF00" stop-opacity="0"><animate attributeName="offset" values="1;0,7;0" dur="1s" repeatCount="indefinite"/></stop></linearGradient><linearGradient id="paint6_linear_36_76" x1="233.854" y1="21" x2="38.976" y2="21" gradientUnits="userSpaceOnUse"><stop stop-color="#FAFF00"/><stop offset="1" stop-color="#FAFF00" stop-opacity="0"><animate attributeName="offset" values="1;0,7;0" dur="1s" repeatCount="indefinite"/></stop></linearGradient><linearGradient id="paint7_linear_36_76" x1="233.854" y1="21" x2="38.976" y2="21" gradientUnits="userSpaceOnUse"><stop stop-color="#FAFF00"/><stop offset="1" stop-color="#FAFF00" stop-opacity="0"><animate attributeName="offset" values="1;0,7;0" dur="1s" repeatCount="indefinite"/></stop></linearGradient><linearGradient id="paint8_linear_36_76" x1="233.854" y1="21" x2="38.976" y2="21" gradientUnits="userSpaceOnUse"><stop stop-color="#FAFF00"/><stop offset="1" stop-color="#FAFF00" stop-opacity="0"><animate attributeName="offset" values="1;0,7;0" dur="1s" repeatCount="indefinite"/></stop></linearGradient><linearGradient id="paint9_linear_36_76" x1="233.854" y1="21" x2="38.976" y2="21" gradientUnits="userSpaceOnUse"><stop stop-color="#FAFF00"/><stop offset="1" stop-color="#FAFF00" stop-opacity="0"><animate attributeName="offset" values="1;0,7;0" dur="1s" repeatCount="indefinite"/></stop></linearGradient><linearGradient id="paint10_linear_36_76" x1="233.854" y1="21" x2="38.976" y2="21" gradientUnits="userSpaceOnUse"><stop stop-color="#FAFF00"/><stop offset="1" stop-color="#FAFF00" stop-opacity="0"><animate attributeName="offset" values="1;0,7;0" dur="1s" repeatCount="indefinite"/></stop></linearGradient><linearGradient id="paint11_linear_36_76" x1="233.854" y1="21" x2="38.976" y2="21" gradientUnits="userSpaceOnUse"><stop stop-color="#FAFF00"/><stop offset="1" stop-color="#FAFF00" stop-opacity="0"><animate attributeName="offset" values="1;0,7;0" dur="1s" repeatCount="indefinite"/></stop></linearGradient><linearGradient id="paint12_linear_36_76" x1="233.854" y1="21" x2="38.976" y2="21" gradientUnits="userSpaceOnUse"><stop stop-color="#FAFF00"/><stop offset="1" stop-color="#FAFF00" stop-opacity="0"><animate attributeName="offset" values="1;0,7;0" dur="1s" repeatCount="indefinite"/></stop></linearGradient><linearGradient id="paint13_linear_36_76" x1="233.854" y1="21" x2="38.976" y2="21" gradientUnits="userSpaceOnUse"><stop stop-color="#FAFF00"/><stop offset="1" stop-color="#FAFF00" stop-opacity="0"><animate attributeName="offset" values="1;0,7;0" dur="1s" repeatCount="indefinite"/></stop></linearGradient><linearGradient id="paint14_linear_36_76" x1="233.854" y1="21" x2="38.976" y2="21" gradientUnits="userSpaceOnUse"><stop stop-color="#FAFF00"/><stop offset="1" stop-color="#FAFF00" stop-opacity="0"><animate attributeName="offset" values="1;0,7;0" dur="1s" repeatCount="indefinite"/></stop></linearGradient><linearGradient id="paint15_linear_36_76" x1="233.854" y1="21" x2="38.976" y2="21" gradientUnits="userSpaceOnUse"><stop stop-color="#FAFF00"/><stop offset="1" stop-color="#FAFF00" stop-opacity="0"><animate attributeName="offset" values="1;0,7;0" dur="1s" repeatCount="indefinite"/></stop></linearGradient><linearGradient id="paint16_linear_36_76" x1="233.854" y1="21" x2="38.976" y2="21" gradientUnits="userSpaceOnUse"><stop stop-color="#FAFF00"/><stop offset="1" stop-color="#FAFF00" stop-opacity="0"><animate attributeName="offset" values="1;0,7;0" dur="1s" repeatCount="indefinite"/></stop></linearGradient></defs></svg>