<svg width="42" height="42" fill="none" xmlns="http://www.w3.org/2000/svg"><rect width="42" height="42" rx="21" fill="#FF005C"/><path d="M30.255 14.119a5.916 5.916 0 00-4.4-1.916c-1.27 0-2.434.402-3.457 1.193-.517.4-.985.889-1.398 1.46a7.071 7.071 0 00-1.398-1.46c-1.023-.791-2.186-1.193-3.456-1.193-1.7 0-3.262.68-4.4 1.916C10.62 15.339 10 17.007 10 18.815c0 1.86.693 3.563 2.182 5.36 1.332 1.607 3.246 3.238 5.462 5.127.757.645 1.615 1.376 2.506 2.154a1.29 1.29 0 001.7 0c.89-.778 1.75-1.51 2.506-2.155 2.216-1.888 4.13-3.52 5.462-5.126 1.489-1.797 2.182-3.5 2.182-5.36 0-1.808-.62-3.476-1.745-4.696z" fill="#000"/></svg>