<svg width="129" height="32" fill="none" xmlns="http://www.w3.org/2000/svg"><g clip-path="url(#clip0_102_4)" fill="#1B1B1B"><path d="M7.654 2.19C5.94 1.6 4.954.957 4.405.48c-.348 1.726-.68 4.555.027 6.212a7.472 7.472 0 003.222-4.5zm19.414 4.501c.708-1.657.375-4.486.027-6.212-.55.477-1.535 1.121-3.249 1.712a7.471 7.471 0 003.222 4.5zM15.75 15.283a2.815 2.815 0 002.566-3.96h-1.643v1.313h-1.846v-1.314h-1.643a2.815 2.815 0 002.566 3.96z"/><path d="M27.74 26.372c-.482-1.86-.716-3.556-.716-5.185v-9.663c0-1.001-.13-1.99-.389-2.946A9.314 9.314 0 0121.94 2.1 11.197 11.197 0 0015.75.25c-2.22 0-4.351.639-6.19 1.85a9.315 9.315 0 01-4.695 6.478 11.298 11.298 0 00-.389 2.946v9.663c0 1.629-.235 3.325-.717 5.185-.217.836.568 1.75 1.438 2.08.59.223 1.397.283 1.9-.703l1.644.838c-.3.59-.27 1.097.095 1.548.504.622 1.544.96 2.318.753.56-.15.882-.542.986-1.197l1.823.289c-.104.655.082 1.127.568 1.443.672.436 1.766.436 2.437 0 .486-.316.672-.788.569-1.443l1.823-.289c.104.655.426 1.047.986 1.197.774.207 1.814-.13 2.318-.753.365-.45.396-.957.094-1.548l1.645-.838c.502.986 1.31.927 1.9.703.87-.33 1.655-1.244 1.438-2.08zm-7.657-3.783h-8.666v-1.846h8.666v1.846zm2.178-11.267h-1.997a4.66 4.66 0 01-4.514 5.807 4.663 4.663 0 01-4.514-5.807H9.24V9.477h13.022v1.845z"/></g><path d="M39.45 3.705h8.67v1.98h-3.225V12h-2.22V5.685H39.45v-1.98zm9.82 0h7.635V5.7h-5.43v1.095h4.875V8.79h-4.875v1.17H57.1V12h-7.83V3.705zm9.156 0h2.01l4.44 5.01v-5.01h2.19V12H65.04L60.6 6.99V12h-2.175V3.705zM76.904 4.83L75.84 6.45c-.89-.65-1.975-.975-3.255-.975-1.15 0-1.725.225-1.725.675 0 .16.064.27.195.33.14.05.36.095.66.135l2.414.27c1.97.24 2.956 1.095 2.956 2.565 0 .91-.405 1.6-1.215 2.07-.8.46-1.856.69-3.166.69-.88 0-1.664-.105-2.354-.315-.68-.22-1.355-.585-2.025-1.095l1.034-1.71c1.13.8 2.31 1.2 3.54 1.2.6 0 1.09-.065 1.47-.195.38-.14.57-.345.57-.615 0-.16-.04-.275-.12-.345-.07-.07-.23-.115-.48-.135l-2.85-.33c-.92-.11-1.62-.36-2.1-.75-.47-.4-.704-.985-.704-1.755 0-.87.364-1.53 1.094-1.98.73-.45 1.666-.675 2.806-.675 1.74 0 3.18.44 4.32 1.32zm1.473-1.125h4.905c1.01 0 1.84.31 2.49.93.65.61.975 1.4.975 2.37 0 .97-.325 1.75-.975 2.34-.65.59-1.48.885-2.49.885h-2.7V12h-2.205V3.705zm2.205 2.01V8.22h2.61c.4 0 .72-.105.96-.315.25-.21.375-.51.375-.9s-.125-.7-.375-.93c-.24-.24-.56-.36-.96-.36h-2.61zm7.39-2.01h4.905c1.01 0 1.84.31 2.49.93.65.61.975 1.4.975 2.37 0 1.22-.5 2.13-1.5 2.73L96.102 12h-2.4l-.945-1.77h-2.58V12h-2.205V3.705zm2.205 2.01V8.22h2.61c.4 0 .72-.105.96-.315.25-.21.375-.51.375-.9s-.125-.7-.375-.93c-.24-.24-.56-.36-.96-.36h-2.61zm7.301-2.01h7.635V5.7h-5.43v1.095h4.875V8.79h-4.875v1.17h5.625V12h-7.83V3.705zm13.866 1.965l-1.32 3.195h2.925l-1.26-3.195h-.345zm-1.41-1.965h3.21L116.669 12h-2.34l-.525-1.215h-4.59l-.51 1.215h-2.37l3.6-8.295zm7.847 0h4.365c1.16 0 2.195.395 3.105 1.185.91.79 1.365 1.775 1.365 2.955 0 1.18-.455 2.17-1.365 2.97-.91.79-1.945 1.185-3.105 1.185h-4.365V3.705zm2.205 1.995v4.275h2.19c.62 0 1.145-.205 1.575-.615.44-.41.66-.915.66-1.515 0-.6-.22-1.105-.66-1.515-.43-.42-.955-.63-1.575-.63h-2.19zM39.69 19.705h2.82l2.58 5.535h.06l2.79-5.535h2.655V28H48.39v-5.22L45.975 28h-1.77l-2.37-5.22V28H39.69v-8.295zm15.155 2.37c-.46.45-.69 1.045-.69 1.785s.23 1.34.69 1.8c.47.45 1.06.675 1.77.675.7 0 1.28-.225 1.74-.675.47-.46.705-1.06.705-1.8s-.235-1.335-.705-1.785c-.46-.46-1.04-.69-1.74-.69-.71 0-1.3.23-1.77.69zM59.9 20.74c.92.82 1.38 1.86 1.38 3.12s-.46 2.3-1.38 3.12c-.92.82-2.015 1.23-3.285 1.23s-2.365-.41-3.285-1.23c-.92-.82-1.38-1.86-1.38-3.12s.46-2.3 1.38-3.12c.92-.82 2.015-1.23 3.285-1.23s2.365.41 3.285 1.23zm2.715-1.035h2.01l4.44 5.01v-5.01h2.19V28H69.23l-4.44-5.01V28h-2.175v-8.295zm18.479 1.125l-1.065 1.62c-.89-.65-1.975-.975-3.255-.975-1.15 0-1.725.225-1.725.675 0 .16.065.27.195.33.14.05.36.095.66.135l2.415.27c1.97.24 2.955 1.095 2.955 2.565 0 .91-.405 1.6-1.215 2.07-.8.46-1.855.69-3.165.69-.88 0-1.665-.105-2.355-.315-.68-.22-1.355-.585-2.025-1.095l1.035-1.71c1.13.8 2.31 1.2 3.54 1.2.6 0 1.09-.065 1.47-.195.38-.14.57-.345.57-.615 0-.16-.04-.275-.12-.345-.07-.07-.23-.115-.48-.135l-2.85-.33c-.92-.11-1.62-.36-2.1-.75-.47-.4-.705-.985-.705-1.755 0-.87.365-1.53 1.095-1.98.73-.45 1.665-.675 2.805-.675 1.74 0 3.18.44 4.32 1.32zm1.07-1.125h8.67v1.98H87.61V28h-2.22v-6.315h-3.225v-1.98zm9.821 0h7.635V21.7h-5.43v1.095h4.875v1.995H94.19v1.17h5.625V28h-7.83v-8.295zm9.156 0h4.905c1.01 0 1.84.31 2.49.93.65.61.975 1.4.975 2.37 0 1.22-.5 2.13-1.5 2.73l1.26 2.265h-2.4l-.945-1.77h-2.58V28h-2.205v-8.295zm2.205 2.01v2.505h2.61c.4 0 .72-.105.96-.315.25-.21.375-.51.375-.9s-.125-.7-.375-.93c-.24-.24-.56-.36-.96-.36h-2.61z" fill="#1B1B1B"/><defs><clipPath id="clip0_102_4"><path fill="#fff" transform="translate(0 .25)" d="M0 0h31.5v31.5H0z"/></clipPath></defs></svg>