<svg width="117" height="35" fill="none" xmlns="http://www.w3.org/2000/svg"><path d="M.6.94h11.56v2.64h-4.3V12H4.9V3.58H.6V.94zm13.094 0h10.18V3.6h-7.24v1.46h6.5v2.66h-6.5v1.56h7.5V12h-10.44V.94zM25.9.94h2.68l5.92 6.68V.94h2.92V12h-2.7L28.8 5.32V12h-2.9V.94zm24.638 1.5L49.12 4.6c-1.186-.867-2.633-1.3-4.34-1.3-1.533 0-2.3.3-2.3.9 0 .213.087.36.26.44.187.067.48.127.88.18l3.22.36c2.627.32 3.94 1.46 3.94 3.42 0 1.213-.54 2.133-1.62 2.76-1.066.613-2.473.92-4.22.92-1.173 0-2.22-.14-3.14-.42-.906-.293-1.806-.78-2.7-1.46l1.38-2.28c1.507 1.067 3.08 1.6 4.72 1.6.8 0 1.454-.087 1.96-.26.507-.187.76-.46.76-.82 0-.213-.053-.367-.16-.46-.093-.093-.306-.153-.64-.18l-3.8-.44c-1.226-.147-2.16-.48-2.8-1-.626-.533-.94-1.313-.94-2.34 0-1.16.487-2.04 1.46-2.64.974-.6 2.22-.9 3.74-.9 2.32 0 4.24.587 5.76 1.76zm1.963-1.5h6.54c1.347 0 2.454.413 3.32 1.24.867.813 1.3 1.867 1.3 3.16 0 1.293-.433 2.333-1.3 3.12-.866.787-1.973 1.18-3.32 1.18h-3.6V12h-2.94V.94zm2.94 2.68v3.34h3.48c.534 0 .96-.14 1.28-.42.334-.28.5-.68.5-1.2 0-.52-.166-.933-.5-1.24-.32-.32-.746-.48-1.28-.48h-3.48zM65.297.94h6.54c1.346 0 2.453.413 3.32 1.24.866.813 1.3 1.867 1.3 3.16 0 1.627-.667 2.84-2 3.64l1.68 3.02h-3.2l-1.26-2.36h-3.44V12h-2.94V.94zm2.94 2.68v3.34h3.48c.533 0 .96-.14 1.28-.42.333-.28.5-.68.5-1.2 0-.52-.167-.933-.5-1.24-.32-.32-.747-.48-1.28-.48h-3.48zM77.97.94h10.18V3.6h-7.24v1.46h6.5v2.66h-6.5v1.56h7.5V12H77.97V.94zm18.487 2.62l-1.76 4.26h3.9l-1.68-4.26h-.46zM94.578.94h4.28l4.7 11.06h-3.12l-.7-1.62h-6.12l-.68 1.62h-3.16l4.8-11.06zm10.464 0h5.82c1.546 0 2.926.527 4.14 1.58 1.213 1.053 1.82 2.367 1.82 3.94s-.607 2.893-1.82 3.96c-1.214 1.053-2.594 1.58-4.14 1.58h-5.82V.94zm2.94 2.66v5.7h2.92c.826 0 1.526-.273 2.1-.82.586-.547.88-1.22.88-2.02s-.294-1.473-.88-2.02c-.574-.56-1.274-.84-2.1-.84h-2.92zM.92 22.94h3.76l3.44 7.38h.08l3.72-7.38h3.54V34h-2.94v-6.96L9.3 34H6.94l-3.16-6.96V34H.92V22.94zm20.206 3.16c-.613.6-.92 1.393-.92 2.38 0 .987.307 1.787.92 2.4.627.6 1.414.9 2.36.9.934 0 1.707-.3 2.32-.9.627-.613.94-1.413.94-2.4 0-.987-.313-1.78-.94-2.38-.613-.613-1.386-.92-2.32-.92-.946 0-1.733.307-2.36.92zm6.74-1.78c1.227 1.093 1.84 2.48 1.84 4.16 0 1.68-.613 3.067-1.84 4.16-1.226 1.093-2.686 1.64-4.38 1.64-1.693 0-3.153-.547-4.38-1.64-1.226-1.093-1.84-2.48-1.84-4.16 0-1.68.614-3.067 1.84-4.16 1.227-1.093 2.687-1.64 4.38-1.64 1.694 0 3.154.547 4.38 1.64zm3.62-1.38h2.68l5.92 6.68v-6.68h2.92V34h-2.7l-5.92-6.68V34h-2.9V22.94zm24.64 1.5l-1.42 2.16c-1.187-.867-2.634-1.3-4.34-1.3-1.534 0-2.3.3-2.3.9 0 .213.086.36.26.44.186.067.48.127.88.18l3.22.36c2.626.32 3.94 1.46 3.94 3.42 0 1.213-.54 2.133-1.62 2.76-1.067.613-2.474.92-4.22.92-1.174 0-2.22-.14-3.14-.42-.907-.293-1.807-.78-2.7-1.46l1.38-2.28c1.506 1.067 3.08 1.6 4.72 1.6.8 0 1.453-.087 1.96-.26.506-.187.76-.46.76-.82 0-.213-.054-.367-.16-.46-.094-.093-.307-.153-.64-.18l-3.8-.44c-1.227-.147-2.16-.48-2.8-1-.627-.533-.94-1.313-.94-2.34 0-1.16.486-2.04 1.46-2.64.973-.6 2.22-.9 3.74-.9 2.32 0 4.24.587 5.76 1.76zm1.427-1.5h11.56v2.64h-4.3V34h-2.96v-8.42h-4.3v-2.64zm13.094 0h10.18v2.66h-7.24v1.46h6.5v2.66h-6.5v1.56h7.5V34h-10.44V22.94zm12.207 0h6.54c1.347 0 2.453.413 3.32 1.24.867.813 1.3 1.867 1.3 3.16 0 1.627-.667 2.84-2 3.64l1.68 3.02h-3.2l-1.26-2.36h-3.44V34h-2.94V22.94zm2.94 2.68v3.34h3.48c.533 0 .96-.14 1.28-.42.333-.28.5-.68.5-1.2 0-.52-.167-.933-.5-1.24-.32-.32-.747-.48-1.28-.48h-3.48z" fill="#1B1B1B"/></svg>