<svg width="48" height="89" fill="none" xmlns="http://www.w3.org/2000/svg"><g opacity=".4" clip-path="url(#clip0_16_2)"><path d="M17.946 28.647a.547.547 0 01-.245-.142 32.701 32.701 0 01-3.506-4.288c-.976-1.435-1.698-2.793-2.146-4.035-.58-1.607-.706-3.037-.373-4.25.388-1.411 1.25-2.605 2.43-3.362 1.198-.77 2.584-.998 3.902-.645 1.69.452 2.98 1.813 3.467 3.55 1.29-1.261 3.089-1.793 4.778-1.34 1.245.333 2.298 1.157 2.964 2.32.731 1.275.919 2.85.514 4.322-.332 1.211-1.164 2.383-2.472 3.482-1.012.85-2.314 1.664-3.872 2.42a32.826 32.826 0 01-5.156 1.967.548.548 0 01-.285 0z" fill="#FAFF00"/></g><g opacity=".2" clip-path="url(#clip1_16_2)"><path d="M23.952 15.67a.434.434 0 01-.217.059 25.87 25.87 0 01-4.368-.44c-1.352-.256-2.518-.612-3.465-1.057-1.226-.576-2.098-1.307-2.591-2.174-.574-1.008-.76-2.16-.523-3.246.24-1.103.89-2.008 1.826-2.549 1.2-.693 2.686-.654 3.933.046.017-1.43.726-2.736 1.927-3.429.884-.51 1.936-.639 2.961-.36 1.125.304 2.113 1.082 2.712 2.134.492.865.682 1.988.565 3.337-.09 1.044-.364 2.23-.814 3.527a26.033 26.033 0 01-1.787 3.993.436.436 0 01-.16.16z" fill="#FAFF00"/></g><g opacity=".6" clip-path="url(#clip2_16_2)"><path d="M27.68 42.352a.74.74 0 01-.37.099c-.143 0-3.562-.008-7.452-.749-2.306-.439-4.295-1.046-5.911-1.805-2.092-.982-3.58-2.23-4.421-3.708-.98-1.721-1.296-3.688-.892-5.539.41-1.882 1.517-3.426 3.115-4.349 2.048-1.182 4.583-1.116 6.71.079.03-2.44 1.24-4.668 3.288-5.851 1.51-.872 3.304-1.09 5.053-.616 1.919.52 3.605 1.848 4.626 3.643.84 1.476 1.164 3.392.965 5.694-.154 1.78-.622 3.804-1.389 6.017-1.294 3.733-2.978 6.688-3.049 6.812a.74.74 0 01-.272.273z" fill="#FAFF00"/></g><g opacity=".8" clip-path="url(#clip3_16_2)"><path d="M13.482 57.606a.845.845 0 01-.31-.31c-.082-.142-2.026-3.529-3.516-7.8-.883-2.532-1.418-4.846-1.59-6.88-.224-2.63.16-4.814 1.143-6.49 1.143-1.952 2.908-3.389 4.97-4.047 2.096-.668 4.256-.456 6.082.598 2.34 1.35 3.722 3.897 3.755 6.684 2.43-1.365 5.326-1.441 7.666-.09 1.724.996 2.966 2.646 3.495 4.647.581 2.196.23 4.622-.961 6.657-.981 1.674-2.69 3.09-5.082 4.207-1.85.864-4.12 1.559-6.746 2.063-4.433.852-8.317.874-8.48.874a.846.846 0 01-.426-.113z" fill="#FAFF00"/></g><g clip-path="url(#clip4_16_2)"><path d="M31.078 77.436a1.012 1.012 0 01-.506.135c-.197 0-4.87-.011-10.188-1.023-3.152-.6-5.87-1.43-8.08-2.468-2.86-1.342-4.893-3.048-6.043-5.07-1.339-2.351-1.772-5.04-1.22-7.57.562-2.572 2.074-4.684 4.259-5.945 2.8-1.616 6.265-1.526 9.173.108.039-3.335 1.693-6.382 4.493-7.998 2.064-1.192 4.517-1.49 6.907-.842 2.623.712 4.928 2.526 6.324 4.98 1.148 2.017 1.592 4.636 1.319 7.782-.21 2.434-.85 5.202-1.898 8.226-1.77 5.104-4.07 9.142-4.168 9.311-.09.158-.22.286-.372.374z" fill="#FAFF00"/></g><defs><clipPath id="clip0_16_2"><path fill="#fff" transform="rotate(15 -28.949 55.696)" d="M0 0h18.694v18.694H0z"/></clipPath><clipPath id="clip1_16_2"><path fill="#fff" transform="rotate(-30 19.139 -16.125)" d="M0 0h14.818v14.818H0z"/></clipPath><clipPath id="clip2_16_2"><path fill="#fff" transform="rotate(-30 55.2 4.899)" d="M0 0h25.282v25.282H0z"/></clipPath><clipPath id="clip3_16_2"><path fill="#fff" transform="rotate(30 -43.28 40.479)" d="M0 0h28.881v28.881H0z"/></clipPath><clipPath id="clip4_16_2"><path fill="#fff" transform="rotate(-30 108.543 29.084)" d="M0 0h34.56v34.56H0z"/></clipPath></defs></svg>