<svg width="30" height="30" fill="none" xmlns="http://www.w3.org/2000/svg"><path d="M17.8 9.31h-5.595a2.897 2.897 0 00-2.894 2.895v5.596a2.897 2.897 0 002.894 2.894h5.596a2.897 2.897 0 002.894-2.894v-5.596a2.9 2.9 0 00-2.894-2.894zM15 18.745A3.75 3.75 0 0111.256 15 3.75 3.75 0 0115 11.256 3.75 3.75 0 0118.744 15 3.75 3.75 0 0115 18.744zm3.932-7.072a.63.63 0 01-.633-.633.63.63 0 01.633-.633.63.63 0 01.633.633.63.63 0 01-.633.633z" fill="#fff"/><path d="M17.276 15.028a2.274 2.274 0 10-4.547-.055 2.274 2.274 0 004.547.055z" fill="#fff"/><path d="M15 1.816C7.717 1.816 1.816 7.716 1.816 15c0 7.283 5.9 13.184 13.184 13.184 7.283 0 13.184-5.9 13.184-13.184 0-7.283-5.9-13.184-13.184-13.184zm7.324 15.985a4.526 4.526 0 01-4.523 4.523h-5.596a4.526 4.526 0 01-4.523-4.523v-5.596a4.526 4.526 0 014.523-4.523h5.596a4.526 4.526 0 014.523 4.523v5.596z" fill="#fff"/></svg>